<?xml version="1.0" encoding="UTF-8" standalone="no"?>
<svg
   xmlns:dc="http://purl.org/dc/elements/1.1/"
   xmlns:cc="http://creativecommons.org/ns#"
   xmlns:rdf="http://www.w3.org/1999/02/22-rdf-syntax-ns#"
   xmlns:svg="http://www.w3.org/2000/svg"
   xmlns="http://www.w3.org/2000/svg"
   xmlns:sodipodi="http://sodipodi.sourceforge.net/DTD/sodipodi-0.dtd"
   xmlns:inkscape="http://www.inkscape.org/namespaces/inkscape"
   version="1.1"
   id="layer"
   x="0px"
   y="0px"
   viewBox="0 0 400 400"
   xml:space="preserve"
   sodipodi:docname="icon.svg"
   width="400"
   height="400"
   inkscape:version="1.0.1 (1.0.1+r73)"
   inkscape:export-filename="/home/john/Downloads/docker-icon.png"
   inkscape:export-xdpi="48"
   inkscape:export-ydpi="48"><metadata
   id="metadata45"><rdf:RDF><cc:Work
       rdf:about=""><dc:format>image/svg+xml</dc:format><dc:type
         rdf:resource="http://purl.org/dc/dcmitype/StillImage" /><dc:title></dc:title></cc:Work></rdf:RDF></metadata><defs
   id="defs43" /><sodipodi:namedview
   pagecolor="#ffffff"
   bordercolor="#666666"
   borderopacity="1"
   objecttolerance="10"
   gridtolerance="10"
   guidetolerance="10"
   inkscape:pageopacity="0"
   inkscape:pageshadow="2"
   inkscape:window-width="1920"
   inkscape:window-height="977"
   id="namedview41"
   showgrid="false"
   inkscape:pagecheckerboard="true"
   inkscape:zoom="0.72392638"
   inkscape:cx="313.62971"
   inkscape:cy="150.1821"
   inkscape:window-x="0"
   inkscape:window-y="34"
   inkscape:window-maximized="1"
   inkscape:current-layer="g65"
   inkscape:document-rotation="0" />
<style
   type="text/css"
   id="style2">
	.st0{fill:#0091E2;}
</style>

















<g
   id="g65"
   transform="matrix(0.81663422,0,0,0.81663422,-11.076828,559.74344)"><g
     id="g51"
     transform="matrix(1.7038043,0,0,1.7038043,41.24155,-176.23876)"><path
       class="st0"
       d="m 233.20338,-173.9622 c -0.6,-0.5 -5.99998,-4.59999 -17.59995,-4.59999 -3,0 -6.09999,0.3 -9.09998,0.8 -2.2,-15.29996 -14.89996,-22.69995 -15.39996,-23.09994 l -3.1,-1.8 -1.99999,2.89999 c -2.49999,3.89999 -4.39999,8.29998 -5.49999,12.79997 -2.09999,8.69998 -0.79999,16.89996 3.59999,23.89994 -5.29998,2.99999 -13.89996,3.69999 -15.69996,3.79999 H 26.403896 c -3.699991,0 -6.699984,2.99999 -6.699984,6.69999 -0.199999,12.39996 1.899996,24.79993 6.199985,36.49991 4.899988,12.79996 12.19997,22.29994 21.599946,28.099925 10.599974,6.499984 27.899931,10.199975 47.399883,10.199975 8.799974,0 17.599954,-0.799998 26.299934,-2.399994 12.09997,-2.199994 23.69994,-6.399984 34.39992,-12.499969 8.79997,-5.099987 16.69995,-11.599967 23.39994,-19.199957 11.29997,-12.69996 17.99995,-26.89993 22.89994,-39.4999 0.7,0 1.3,0 2,0 12.29997,0 19.89995,-4.89999 24.09994,-9.09997 2.79999,-2.6 4.89998,-5.79999 6.39998,-9.39998 l 0.9,-2.59999 z"
       id="path20"
       inkscape:connector-curvature="0"
       style="fill:#0091e2;stroke-width:0.999997" /><path
       class="st0"
       d="m 39.603863,-163.36223 h 18.999953 c 0.899998,0 1.699996,-0.7 1.699996,-1.69999 v 0 -16.99996 c 0,-0.9 -0.699999,-1.7 -1.699996,-1.7 0,0 0,0 0,0 H 39.603863 c -0.899998,0 -1.699996,0.7 -1.699996,1.7 0,0 0,0 0,0 v 16.99996 c 0.1,0.99999 0.799998,1.69999 1.699996,1.69999 v 0"
       id="path22"
       inkscape:connector-curvature="0"
       style="fill:#0091e2;stroke-width:0.999997" /><path
       class="st0"
       d="m 65.803798,-163.36223 h 18.999953 c 0.899998,0 1.699996,-0.7 1.699996,-1.69999 v 0 -16.99996 c 0,-0.9 -0.699999,-1.7 -1.699996,-1.7 0,0 0,0 0,0 H 65.803798 c -0.899998,0 -1.699996,0.7 -1.699996,1.7 v 16.99996 c 0.1,0.99999 0.799998,1.69999 1.699996,1.69999"
       id="path24"
       inkscape:connector-curvature="0"
       style="fill:#0091e2;stroke-width:0.999997" /><path
       class="st0"
       d="m 92.503732,-163.36223 h 18.999948 c 0.9,0 1.7,-0.7 1.7,-1.69999 v 0 -16.99996 c 0,-0.9 -0.7,-1.7 -1.7,-1.7 0,0 0,0 0,0 H 92.503732 c -0.899998,0 -1.699996,0.7 -1.699996,1.7 0,0 0,0 0,0 v 16.99996 c 0,0.99999 0.699998,1.69999 1.699996,1.69999 v 0"
       id="path26"
       inkscape:connector-curvature="0"
       style="fill:#0091e2;stroke-width:0.999997" /><path
       class="st0"
       d="m 118.80367,-163.36223 h 18.99995 c 0.9,0 1.7,-0.7 1.7,-1.69999 v -16.99996 c 0,-0.9 -0.7,-1.7 -1.7,-1.7 v 0 h -18.99995 c -0.9,0 -1.7,0.7 -1.7,1.7 0,0 0,0 0,0 v 16.99996 c 0,0.99999 0.8,1.69999 1.7,1.69999 v 0"
       id="path28"
       inkscape:connector-curvature="0"
       style="fill:#0091e2;stroke-width:0.999997" /><path
       class="st0"
       d="m 65.803798,-187.66217 h 18.999953 c 0.899998,0 1.699996,-0.8 1.699996,-1.69999 v -16.99996 c 0,-0.9 -0.699999,-1.7 -1.699996,-1.7 v 0 H 65.803798 c -0.899998,0 -1.699996,0.7 -1.699996,1.7 v 16.99996 c 0.1,0.89999 0.799998,1.69999 1.699996,1.69999"
       id="path30"
       inkscape:connector-curvature="0"
       style="fill:#0091e2;stroke-width:0.999997" /><path
       class="st0"
       d="m 92.503732,-187.66217 h 18.999948 c 0.9,0 1.7,-0.8 1.7,-1.69999 v -16.99996 c 0,-0.9 -0.7,-1.7 -1.7,-1.7 v 0 H 92.503732 c -0.899998,0 -1.699996,0.7 -1.699996,1.7 v 0 16.99996 c 0,0.89999 0.699998,1.69999 1.699996,1.69999"
       id="path32"
       inkscape:connector-curvature="0"
       style="fill:#0091e2;stroke-width:0.999997" /><path
       class="st0"
       d="m 118.80367,-187.66217 h 18.99995 c 0.9,0 1.7,-0.8 1.7,-1.69999 v -16.99996 c 0,-0.9 -0.8,-1.7 -1.7,-1.7 h -18.99995 c -0.9,0 -1.7,0.7 -1.7,1.7 v 0 16.99996 c 0,0.89999 0.8,1.69999 1.7,1.69999"
       id="path34"
       inkscape:connector-curvature="0"
       style="fill:#0091e2;stroke-width:0.999997" /><path
       class="st0"
       d="m 118.80367,-212.06211 h 18.99995 c 0.9,0 1.7,-0.7 1.7,-1.69999 v -16.99996 c 0,-0.9 -0.8,-1.7 -1.7,-1.7 h -18.99995 c -0.9,0 -1.7,0.7 -1.7,1.7 v 0 16.99996 c 0,0.9 0.8,1.69999 1.7,1.69999"
       id="path36"
       inkscape:connector-curvature="0"
       style="fill:#0091e2;stroke-width:0.999997" /><path
       class="st0"
       d="m 145.3036,-163.36223 h 18.99995 c 0.9,0 1.7,-0.7 1.7,-1.69999 v -16.99996 c 0,-0.9 -0.7,-1.7 -1.7,-1.7 v 0 H 145.3036 c -0.9,0 -1.69999,0.7 -1.69999,1.7 0,0 0,0 0,0 v 16.99996 c 0.1,0.99999 0.79999,1.69999 1.69999,1.69999"
       id="path38"
       inkscape:connector-curvature="0"
       style="fill:#0091e2;stroke-width:0.999997" /></g></g>
</svg>
